HIERARCHY
ROOT mixamorig:Hips
{
	OFFSET 0.000000 201.639420 0.000000
	CHANNELS 6 Xposition Yposition Zposition Xrotation Yrotation Zrotation
	JOINT mixamorig:Spine
	{
		OFFSET 0.006200 19.524994 -2.481800
		CHANNELS 3 Xrotation Yrotation Zrotation
		JOINT mixamorig:Spine1
		{
			OFFSET -0.000900 22.835007 -2.825400
			CHANNELS 3 Xrotation Yrotation Zrotation
			JOINT mixamorig:Spine2
			{
				OFFSET -0.020600 26.552490 -3.193300
				CHANNELS 3 Xrotation Yrotation Zrotation
				JOINT mixamorig:Neck
				{
					OFFSET -0.060000 30.701813 1.352200
					CHANNELS 3 Xrotation Yrotation Zrotation
					JOINT mixamorig:Head
					{
						OFFSET -0.087200 22.547607 3.670900
						CHANNELS 3 Xrotation Yrotation Zrotation
						JOINT mixamorig:HeadTop_End
						{
							OFFSET -0.830600 40.355194 7.893500
							CHANNELS 3 Xrotation Yrotation Zrotation
							End Site
							{
								OFFSET 0.000000 30.592346 0.000000
							}
						}
						JOINT mixamorig:RightEye
						{
							OFFSET -6.302100 18.118591 16.197100
							CHANNELS 3 Xrotation Yrotation Zrotation
							End Site
							{
								OFFSET 0.000000 30.592346 0.000000
							}
						}
						JOINT mixamorig:LeftEye
						{
							OFFSET 6.741500 18.382690 16.401899
							CHANNELS 3 Xrotation Yrotation Zrotation
							End Site
							{
								OFFSET 0.000000 30.592346 0.000000
							}
						}
					}
				}
				JOINT mixamorig:LeftShoulder
				{
					OFFSET 11.924900 18.230499 1.425400
					CHANNELS 3 Xrotation Yrotation Zrotation
					JOINT mixamorig:LeftArm
					{
						OFFSET 25.435989 -0.697632 -5.229300
						CHANNELS 3 Xrotation Yrotation Zrotation
						JOINT mixamorig:LeftForeArm
						{
							OFFSET 54.684776 0.000000 0.000000
							CHANNELS 3 Xrotation Yrotation Zrotation
							JOINT mixamorig:LeftHand
							{
								OFFSET 55.098175 0.000000 0.000000
								CHANNELS 3 Xrotation Yrotation Zrotation
								JOINT mixamorig:LeftHandMiddle1
								{
									OFFSET 23.369751 0.000000 0.000000
									CHANNELS 3 Xrotation Yrotation Zrotation
									JOINT mixamorig:LeftHandMiddle2
									{
										OFFSET 6.378677 0.000000 0.000000
										CHANNELS 3 Xrotation Yrotation Zrotation
										JOINT mixamorig:LeftHandMiddle3
										{
											OFFSET 6.148331 0.000000 0.000000
											CHANNELS 3 Xrotation Yrotation Zrotation
											JOINT mixamorig:LeftHandMiddle4
											{
												OFFSET 6.582504 0.000000 0.000000
												CHANNELS 3 Xrotation Yrotation Zrotation
												End Site
												{
													OFFSET -1.168900 6.395691 1.028606
												}
											}
										}
									}
								}
								JOINT mixamorig:LeftHandThumb1
								{
									OFFSET 7.235672 -3.848206 5.434273
									CHANNELS 3 Xrotation Yrotation Zrotation
									JOINT mixamorig:LeftHandThumb2
									{
										OFFSET 6.568451 -3.792297 3.792300
										CHANNELS 3 Xrotation Yrotation Zrotation
										JOINT mixamorig:LeftHandThumb3
										{
											OFFSET 6.063080 -3.500519 3.500518
											CHANNELS 3 Xrotation Yrotation Zrotation
											JOINT mixamorig:LeftHandThumb4
											{
												OFFSET 4.793182 -2.767334 2.767349
												CHANNELS 3 Xrotation Yrotation Zrotation
												End Site
												{
													OFFSET 0.101639 6.054260 1.275483
												}
											}
										}
									}
								}
								JOINT mixamorig:LeftHandIndex1
								{
									OFFSET 23.101074 -0.309540 4.992809
									CHANNELS 3 Xrotation Yrotation Zrotation
									JOINT mixamorig:LeftHandIndex2
									{
										OFFSET 6.226883 0.000000 0.000000
										CHANNELS 3 Xrotation Yrotation Zrotation
										JOINT mixamorig:LeftHandIndex3
										{
											OFFSET 6.094330 0.000000 0.000000
											CHANNELS 3 Xrotation Yrotation Zrotation
											JOINT mixamorig:LeftHandIndex4
											{
												OFFSET 5.482605 0.000000 0.000000
												CHANNELS 3 Xrotation Yrotation Zrotation
												End Site
												{
													OFFSET -1.427902 5.233032 0.797164
												}
											}
										}
									}
								}
								JOINT mixamorig:LeftHandRing1
								{
									OFFSET 22.299240 0.021149 -3.964172
									CHANNELS 3 Xrotation Yrotation Zrotation
									JOINT mixamorig:LeftHandRing2
									{
										OFFSET 6.321869 0.000000 0.000000
										CHANNELS 3 Xrotation Yrotation Zrotation
										JOINT mixamorig:LeftHandRing3
										{
											OFFSET 5.899796 0.000000 0.000000
											CHANNELS 3 Xrotation Yrotation Zrotation
											JOINT mixamorig:LeftHandRing4
											{
												OFFSET 6.517899 0.000000 0.000000
												CHANNELS 3 Xrotation Yrotation Zrotation
												End Site
												{
													OFFSET -1.637299 6.232208 0.980890
												}
											}
										}
									}
								}
								JOINT mixamorig:LeftHandPinky1
								{
									OFFSET 20.463791 -0.302338 -8.562233
									CHANNELS 3 Xrotation Yrotation Zrotation
									JOINT mixamorig:LeftHandPinky2
									{
										OFFSET 6.908646 0.000000 0.000000
										CHANNELS 3 Xrotation Yrotation Zrotation
										JOINT mixamorig:LeftHandPinky3
										{
											OFFSET 4.622849 0.000000 0.000000
											CHANNELS 3 Xrotation Yrotation Zrotation
											JOINT mixamorig:LeftHandPinky4
											{
												OFFSET 5.216080 0.000000 0.000000
												CHANNELS 3 Xrotation Yrotation Zrotation
												End Site
												{
													OFFSET -0.606308 5.116241 0.814926
												}
											}
										}
									}
								}
							}
						}
					}
				}
				JOINT mixamorig:RightShoulder
				{
					OFFSET -12.001300 18.284088 1.348900
					CHANNELS 3 Xrotation Yrotation Zrotation
					JOINT mixamorig:RightArm
					{
						OFFSET -25.308500 -0.751312 -5.164599
						CHANNELS 3 Xrotation Yrotation Zrotation
						JOINT mixamorig:RightForeArm
						{
							OFFSET -54.684429 0.000000 0.000000
							CHANNELS 3 Xrotation Yrotation Zrotation
							JOINT mixamorig:RightHand
							{
								OFFSET -55.150291 0.000000 0.000000
								CHANNELS 3 Xrotation Yrotation Zrotation
								JOINT mixamorig:RightHandMiddle1
								{
									OFFSET -23.317566 0.000000 0.000000
									CHANNELS 3 Xrotation Yrotation Zrotation
									JOINT mixamorig:RightHandMiddle2
									{
										OFFSET -6.378403 0.000000 0.000000
										CHANNELS 3 Xrotation Yrotation Zrotation
										JOINT mixamorig:RightHandMiddle3
										{
											OFFSET -6.148193 0.000000 0.000000
											CHANNELS 3 Xrotation Yrotation Zrotation
											JOINT mixamorig:RightHandMiddle4
											{
												OFFSET -6.583389 0.000000 0.000000
												CHANNELS 3 Xrotation Yrotation Zrotation
												End Site
												{
													OFFSET 1.171692 6.395905 1.029786
												}
											}
										}
									}
								}
								JOINT mixamorig:RightHandThumb1
								{
									OFFSET -7.190521 -3.860474 5.435846
									CHANNELS 3 Xrotation Yrotation Zrotation
									JOINT mixamorig:RightHandThumb2
									{
										OFFSET -6.567429 -3.791718 3.791708
										CHANNELS 3 Xrotation Yrotation Zrotation
										JOINT mixamorig:RightHandThumb3
										{
											OFFSET -6.062469 -3.500153 3.500166
											CHANNELS 3 Xrotation Yrotation Zrotation
											JOINT mixamorig:RightHandThumb4
											{
												OFFSET -4.792618 -2.767029 2.767022
												CHANNELS 3 Xrotation Yrotation Zrotation
												End Site
												{
													OFFSET -0.100327 6.053253 1.276754
												}
											}
										}
									}
								}
								JOINT mixamorig:RightHandIndex1
								{
									OFFSET -23.048981 -0.310791 4.992554
									CHANNELS 3 Xrotation Yrotation Zrotation
									JOINT mixamorig:RightHandIndex2
									{
										OFFSET -6.227539 0.000000 0.000000
										CHANNELS 3 Xrotation Yrotation Zrotation
										JOINT mixamorig:RightHandIndex3
										{
											OFFSET -6.095047 0.000000 0.000000
											CHANNELS 3 Xrotation Yrotation Zrotation
											JOINT mixamorig:RightHandIndex4
											{
												OFFSET -5.484772 0.000000 0.000000
												CHANNELS 3 Xrotation Yrotation Zrotation
												End Site
												{
													OFFSET 1.420593 5.237305 0.797056
												}
											}
										}
									}
								}
								JOINT mixamorig:RightHandRing1
								{
									OFFSET -22.246323 0.020569 -3.963762
									CHANNELS 3 Xrotation Yrotation Zrotation
									JOINT mixamorig:RightHandRing2
									{
										OFFSET -6.322128 0.000000 0.000000
										CHANNELS 3 Xrotation Yrotation Zrotation
										JOINT mixamorig:RightHandRing3
										{
											OFFSET -5.900024 0.000000 0.000000
											CHANNELS 3 Xrotation Yrotation Zrotation
											JOINT mixamorig:RightHandRing4
											{
												OFFSET -6.518356 0.000000 0.000000
												CHANNELS 3 Xrotation Yrotation Zrotation
												End Site
												{
													OFFSET 1.636398 6.232697 0.982186
												}
											}
										}
									}
								}
								JOINT mixamorig:RightHandPinky1
								{
									OFFSET -20.411011 -0.303314 -8.561701
									CHANNELS 3 Xrotation Yrotation Zrotation
									JOINT mixamorig:RightHandPinky2
									{
										OFFSET -6.907349 0.000000 0.000000
										CHANNELS 3 Xrotation Yrotation Zrotation
										JOINT mixamorig:RightHandPinky3
										{
											OFFSET -4.623840 0.000000 0.000000
											CHANNELS 3 Xrotation Yrotation Zrotation
											JOINT mixamorig:RightHandPinky4
											{
												OFFSET -5.218353 0.000000 0.000000
												CHANNELS 3 Xrotation Yrotation Zrotation
												End Site
												{
													OFFSET 0.602097 5.118835 0.816273
												}
											}
										}
									}
								}
							}
						}
					}
				}
			}
		}
	}
	JOINT mixamorig:LeftUpLeg
	{
		OFFSET 18.168400 -13.561905 -0.039000
		CHANNELS 3 Xrotation Yrotation Zrotation
		JOINT mixamorig:LeftLeg
		{
			OFFSET 0.577358 -80.825211 -3.695000
			CHANNELS 3 Xrotation Yrotation Zrotation
			JOINT mixamorig:LeftFoot
			{
				OFFSET -0.577356 -83.370262 -6.520700
				CHANNELS 3 Xrotation Yrotation Zrotation
				JOINT mixamorig:LeftToeBase
				{
					OFFSET 0.750401 -20.798306 25.135401
					CHANNELS 3 Xrotation Yrotation Zrotation
					JOINT mixamorig:LeftToe_End
					{
						OFFSET -0.000500 0.001200 19.917799
						CHANNELS 3 Xrotation Yrotation Zrotation
						End Site
						{
							OFFSET 0.000000 19.917805 0.000000
						}
					}
				}
			}
		}
	}
	JOINT mixamorig:RightUpLeg
	{
		OFFSET -18.162500 -13.585098 -0.041000
		CHANNELS 3 Xrotation Yrotation Zrotation
		JOINT mixamorig:RightLeg
		{
			OFFSET -0.595024 -80.945297 -3.631900
			CHANNELS 3 Xrotation Yrotation Zrotation
			JOINT mixamorig:RightFoot
			{
				OFFSET 0.595024 -83.218193 -6.561200
				CHANNELS 3 Xrotation Yrotation Zrotation
				JOINT mixamorig:RightToeBase
				{
					OFFSET -0.753601 -20.807106 25.115000
					CHANNELS 3 Xrotation Yrotation Zrotation
					JOINT mixamorig:RightToe_End
					{
						OFFSET 0.000299 0.001700 19.918200
						CHANNELS 3 Xrotation Yrotation Zrotation
						End Site
						{
							OFFSET 0.000000 19.918203 0.000000
						}
					}
				}
			}
		}
	}
}
MOTION
Frames: 5
Frame Time: 0.033333
-0.214569 195.795731 1.482553 -4.304576 1.226550 -1.235475 5.043166 0.352892 0.083350 1.975081 0.151527 0.000659 1.974820 0.154960 0.001184 -0.185297 -2.188162 0.217479 -14.137283 -11.267195 0.836723 0.000001 0.000001 0.000000 0.000001 0.000001 0.000000 0.000001 0.000001 0.000000 11.660792 -9.806155 -8.763269 5.788310 -36.946518 -52.634654 0.000003 -30.232702 0.000005 -6.273203 16.357340 -4.553539 -0.351468 0.967050 -27.085050 0.512622 2.611533 -22.207090 0.020288 0.529353 -4.390671 0.000004 0.000001 -0.000002 -5.339189 -5.205867 11.738997 9.746811 27.786716 -3.653383 2.497578 10.544771 0.736463 -0.000001 0.000002 0.000001 -0.525042 -0.635818 -17.456181 0.493158 2.563392 -21.775929 0.000336 0.067584 -0.559985 -0.000002 -0.000000 0.000001 -2.396200 -1.657480 -33.310081 0.511484 2.608753 -22.182040 0.017330 0.489219 -4.057390 -0.000003 0.000002 0.000004 2.373429 5.205679 -49.368542 0.131941 -2.682792 -11.953946 0.031790 0.662285 -5.496579 0.000000 0.000001 -0.000001 9.803289 -2.154704 10.252543 -3.394515 44.731469 57.554282 -0.000021 18.349682 0.000031 1.732149 -9.821401 9.116992 1.122865 -3.851769 27.869195 0.853778 -3.343320 28.643459 0.107841 -1.222310 10.083339 0.000002 -0.000002 0.000002 -7.013077 -10.018282 0.971060 6.614975 -13.937642 0.135590 -0.876186 -0.959401 -2.110077 0.000003 -0.000000 -0.000001 -1.250632 1.676735 22.570864 1.300906 -4.054473 35.565649 0.033653 -0.684697 5.627662 -0.000001 -0.000001 -0.000002 2.413709 -5.777274 32.876736 0.397970 -2.322810 19.441334 0.009532 -0.364912 2.995870 0.000002 0.000003 -0.000006 0.715290 -3.172566 20.494275 1.690490 -4.548869 40.756152 0.003796 -0.230161 1.889018 0.000001 0.000002 -0.000001 -10.743941 6.513080 10.673397 26.768985 -7.041922 -0.517639 -12.547215 0.966621 -5.314065 -0.000007 0.000000 0.000002 -0.000000 0.000000 -0.000000 -9.267183 -14.654123 -7.701890 24.348494 5.966095 -3.535784 -11.228114 -1.194388 7.691278 -1.513990 -0.000004 0.000002 -0.000000 -0.000000 -0.000000 
-0.316904 195.776917 1.841561 -4.159720 1.205039 -1.222301 4.991719 0.371809 0.077663 1.954773 0.159479 -0.002549 1.954487 0.162959 -0.002018 -0.190801 -2.195171 0.252374 -13.997113 -11.275812 0.893125 -0.000000 -0.000000 -0.000000 -0.000000 -0.000000 -0.000000 -0.000000 -0.000000 -0.000000 11.619860 -9.779796 -8.741036 5.989726 -36.724322 -52.951127 0.000016 -30.288518 0.000010 -6.354156 16.662381 -4.525284 -0.351463 0.967041 -27.085054 0.512612 2.611530 -22.207091 0.020292 0.529339 -4.390677 0.000002 -0.000002 -0.000001 -5.339192 -5.205862 11.738988 9.746817 27.786697 -3.653385 2.497572 10.544776 0.736472 0.000004 0.000004 0.000004 -0.525038 -0.635821 -17.456179 0.493154 2.563388 -21.775934 0.000321 0.067579 -0.559991 0.000001 0.000001 -0.000000 -2.396200 -1.657471 -33.310068 0.511483 2.608757 -22.182054 0.017326 0.489219 -4.057399 0.000001 0.000001 -0.000000 2.373443 5.205690 -49.368546 0.131940 -2.682783 -11.953961 0.031793 0.662292 -5.496573 0.000000 0.000001 -0.000001 9.776770 -2.195736 10.227272 -2.721625 44.688954 57.057976 0.000006 18.959861 -0.000017 1.766963 -9.867759 9.316984 1.122854 -3.851759 27.869228 0.853775 -3.343322 28.643460 0.107835 -1.222315 10.083324 0.000001 0.000000 0.000001 -7.013075 -10.018276 0.971066 6.614967 -13.937644 0.135593 -0.876200 -0.959404 -2.110067 0.000001 -0.000002 -0.000001 -1.250637 1.676726 22.570848 1.300916 -4.054467 35.565649 0.033642 -0.684693 5.627655 -0.000002 0.000004 0.000001 2.413711 -5.777276 32.876740 0.397959 -2.322781 19.441350 0.009540 -0.364940 2.995846 -0.000002 0.000002 -0.000002 0.715282 -3.172572 20.494266 1.690504 -4.548886 40.756152 0.003802 -0.230170 1.889011 -0.000001 -0.000001 0.000001 -10.727349 6.440891 10.631263 26.730784 -6.942883 -0.451606 -12.652886 0.987398 -5.406490 0.000004 0.000001 -0.000004 0.000000 0.000000 0.000000 -9.288338 -14.557240 -7.604684 24.385888 5.882888 -3.636201 -11.375821 -1.203729 7.733457 -1.410992 0.000002 -0.000000 -0.000000 -0.000001 -0.000000 
-0.408401 195.588745 2.191293 -3.913292 1.151831 -1.172377 4.976472 0.407891 0.047286 1.948591 0.174766 -0.014456 1.948271 0.178340 -0.013877 -0.235466 -2.204177 0.312431 -13.911775 -11.284297 1.004831 0.000000 -0.000001 -0.000000 0.000000 -0.000001 -0.000000 0.000000 -0.000001 -0.000000 11.456974 -9.659509 -8.656099 6.115947 -36.416690 -53.232350 0.000005 -30.742890 0.000016 -6.171372 16.860846 -4.378056 -0.351473 0.967040 -27.085061 0.512614 2.611552 -22.207062 0.020298 0.529341 -4.390700 -0.000000 -0.000001 0.000000 -5.339185 -5.205850 11.739008 9.746799 27.786697 -3.653370 2.497568 10.544769 0.736457 0.000001 0.000002 0.000001 -0.525053 -0.635815 -17.456172 0.493157 2.563404 -21.775920 0.000325 0.067576 -0.559987 -0.000001 -0.000001 -0.000001 -2.396202 -1.657473 -33.310071 0.511486 2.608756 -22.182047 0.017325 0.489219 -4.057406 0.000002 -0.000001 -0.000001 2.373429 5.205683 -49.368549 0.131942 -2.682768 -11.953956 0.031787 0.662275 -5.496583 0.000000 0.000000 0.000001 9.674170 -2.417517 10.164034 -1.738013 44.599745 56.243821 0.000011 20.392768 -0.000022 2.024178 -9.899008 9.706390 1.122853 -3.851762 27.869209 0.853771 -3.343303 28.643481 0.107834 -1.222321 10.083319 0.000004 -0.000003 0.000005 -7.013084 -10.018291 0.971063 6.614967 -13.937635 0.135567 -0.876194 -0.959403 -2.110067 0.000004 -0.000004 -0.000001 -1.250646 1.676738 22.570864 1.300884 -4.054460 35.565639 0.033651 -0.684702 5.627656 0.000002 -0.000001 -0.000002 2.413708 -5.777268 32.876733 0.397951 -2.322799 19.441343 0.009551 -0.364935 2.995860 0.000001 0.000001 -0.000003 0.715269 -3.172574 20.494261 1.690509 -4.548880 40.756159 0.003790 -0.230159 1.889022 0.000002 0.000000 0.000003 -11.024433 6.337377 10.593159 27.130428 -6.872788 -0.428769 -12.979226 1.013707 -5.444355 -0.000078 0.000000 -0.000002 -0.000000 -0.000000 -0.000000 -9.703612 -14.361574 -7.598053 24.974078 5.795769 -3.774840 -11.795497 -1.219802 7.775280 -1.183388 -0.000000 0.000000 0.000000 0.000001 -0.000000 
-0.479908 195.121750 2.437334 -3.499073 1.084425 -1.086101 5.022970 0.447399 -0.011356 1.966435 0.191786 -0.035673 1.966080 0.195506 -0.035026 -0.346031 -2.209957 0.375809 -13.961725 -11.287846 1.162841 -0.000001 -0.000001 -0.000000 -0.000001 -0.000001 -0.000000 -0.000001 -0.000001 -0.000000 11.156378 -9.428196 -8.502159 6.129634 -35.856813 -53.554233 0.000003 -31.714959 -0.000002 -5.720685 17.010803 -4.101246 -0.351465 0.967040 -27.085061 0.512622 2.611548 -22.207062 0.020295 0.529329 -4.390681 0.000002 0.000002 0.000004 -5.339190 -5.205868 11.738974 9.746811 27.786695 -3.653376 2.497562 10.544777 0.736477 0.000002 0.000001 0.000003 -0.525041 -0.635825 -17.456183 0.493149 2.563386 -21.775932 0.000329 0.067588 -0.559998 0.000001 0.000000 0.000001 -2.396194 -1.657476 -33.310061 0.511479 2.608752 -22.182040 0.017328 0.489235 -4.057390 -0.000003 -0.000004 -0.000001 2.373437 5.205680 -49.368539 0.131942 -2.682775 -11.953956 0.031786 0.662289 -5.496578 0.000004 -0.000002 0.000002 9.454939 -2.868396 10.010487 -0.526793 44.410143 55.189885 -0.000018 22.709317 0.000015 2.564306 -9.842890 10.251274 1.122851 -3.851761 27.869224 0.853769 -3.343311 28.643466 0.107828 -1.222312 10.083340 0.000003 -0.000000 -0.000000 -7.013071 -10.018283 0.971047 6.614971 -13.937655 0.135580 -0.876201 -0.959404 -2.110079 -0.000003 0.000000 0.000002 -1.250639 1.676724 22.570848 1.300907 -4.054459 35.565628 0.033649 -0.684693 5.627666 0.000002 -0.000000 0.000000 2.413711 -5.777266 32.876723 0.397954 -2.322791 19.441351 0.009538 -0.364926 2.995866 -0.000003 0.000000 -0.000004 0.715274 -3.172571 20.494275 1.690497 -4.548884 40.756152 0.003793 -0.230169 1.889021 0.000003 0.000003 0.000001 -11.911812 6.272850 10.661671 28.253728 -6.981107 -0.554396 -13.623692 1.034294 -5.330361 -0.274773 0.000000 -0.000001 0.000000 0.000001 0.000000 -10.781175 -14.084382 -7.787032 26.413149 5.673248 -3.859934 -12.591077 -1.239351 7.770630 -1.659299 0.000000 -0.000000 -0.000000 0.000000 0.000000 
-0.531214 194.359329 2.506999 -2.859968 0.983756 -0.961487 5.191074 0.473605 -0.085942 2.031603 0.203854 -0.063691 2.031227 0.207778 -0.062973 -0.557997 -2.198303 0.378805 -14.385461 -11.274569 1.313460 0.000002 0.000001 -0.000000 0.000002 0.000001 -0.000000 0.000002 0.000001 -0.000000 10.753022 -9.100244 -8.300743 5.996246 -34.696295 -53.936139 0.000001 -33.491225 -0.000010 -5.090268 17.171041 -3.695901 -0.351468 0.967032 -27.085069 0.512611 2.611552 -22.207073 0.020296 0.529337 -4.390674 0.000003 0.000003 0.000003 -5.339176 -5.205866 11.738991 9.746799 27.786702 -3.653361 2.497571 10.544777 0.736465 -0.000002 0.000002 -0.000002 -0.525049 -0.635821 -17.456169 0.493164 2.563411 -21.775934 0.000334 0.067577 -0.559992 -0.000003 -0.000001 -0.000001 -2.396189 -1.657475 -33.310068 0.511467 2.608754 -22.182035 0.017325 0.489228 -4.057399 0.000004 -0.000001 -0.000001 2.373445 5.205687 -49.368525 0.131948 -2.682784 -11.953966 0.031793 0.662278 -5.496584 0.000001 0.000001 -0.000006 9.055722 -3.562829 9.642129 0.600597 43.966976 54.181490 -0.000018 25.825471 0.000016 3.294032 -9.538006 10.664277 1.122847 -3.851773 27.869199 0.853773 -3.343310 28.643471 0.107838 -1.222324 10.083337 0.000004 -0.000001 0.000001 -7.013078 -10.018288 0.971039 6.614972 -13.937644 0.135595 -0.876203 -0.959404 -2.110087 -0.000003 0.000001 0.000000 -1.250649 1.676725 22.570848 1.300905 -4.054476 35.565639 0.033652 -0.684684 5.627656 0.000001 0.000002 -0.000003 2.413700 -5.777283 32.876740 0.397968 -2.322791 19.441350 0.009541 -0.364922 2.995854 -0.000004 0.000001 -0.000002 0.715269 -3.172575 20.494273 1.690496 -4.548874 40.756155 0.003791 -0.230178 1.889023 0.000000 -0.000001 0.000002 -13.472840 6.274132 10.870841 30.069075 -7.267996 -0.874269 -14.530983 1.035571 -5.043501 -0.821952 -0.000001 -0.000001 0.000000 0.000001 -0.000000 -12.613619 -13.764526 -8.248613 28.654423 5.548300 -3.779735 -13.680068 -1.287882 7.672233 -2.354387 -0.000001 -0.000001 0.000000 0.000000 0.000000 
